<?xml version="1.0" encoding="utf-8"?>
<!-- Generator: Adobe Illustrator 26.2.1, SVG Export Plug-In . SVG Version: 6.00 Build 0)  -->
<svg version="1.1" id="bambuSticks" xmlns="http://www.w3.org/2000/svg" xmlns:xlink="http://www.w3.org/1999/xlink" x="0px"
	 y="0px" viewBox="0 0 151.1 143.5" style="enable-background:new 0 0 151.1 143.5;" xml:space="preserve">
<style type="text/css">
	.st0{fill:#EFE1EA;stroke:#1E1E1B;stroke-width:3.9999;stroke-miterlimit:9.9997;}
	.st1{fill:#8C8C89;stroke:#1E1E1B;stroke-width:3.9999;stroke-miterlimit:9.9997;}
	.st2{fill:#020202;stroke:#0E1612;stroke-miterlimit:10;}
</style>
<g>
	<ellipse class="st0" cx="75.6" cy="71.8" rx="72" ry="69.5"/>
	<g>
		<path class="st1" d="M38.1,111.2c6.3-5.6,11.2-12,12.7-18.3l13.2,7.7c-7.1,5.6-10.6,11.8-12.7,18.3L38.1,111.2z"/>
		<polygon class="st1" points="82.1,48.3 99.3,23.6 112,30.9 94.7,55.7 		"/>
		<path class="st1" d="M70.1,65.9c5.7-5,10.1-10.7,11.4-16.4L94,56.8c-6.5,5-9.6,10.5-11.4,16.4C82.7,73.1,70.1,65.9,70.1,65.9z"/>
		<polygon class="st1" points="51.4,91.6 68.2,67.4 81.7,75.3 64.9,99.4 		"/>
		<path class="st1" d="M108.8,120.9c-3.2-6.5-7.6-12.2-12.9-15.4l11.1-7.8c2.9,7.2,7.6,11.8,12.9,15.4L108.8,120.9z"/>
		<g>
			<g>
				<polygon class="st1" points="50.9,30 39.1,38.3 58.6,61.6 70.5,53.3 				"/>
				<path class="st1" d="M71.4,54.2l-11.8,8.2c5.4,3.1,9.8,8.8,12.9,15.4l11.8-8.2C79,66,74.3,61.5,71.4,54.2z"/>
				<polygon class="st1" points="86.1,71.2 73.4,80.1 92.4,102.8 105.2,93.9 				"/>
			</g>
			
				<ellipse transform="matrix(0.5638 -0.8259 0.8259 0.5638 -8.6074 52.1525)" class="st1" cx="45.1" cy="34.2" rx="7.6" ry="11.1"/>
		</g>
		<path class="st2" d="M51,87.7c0,0,1.2,4.4-0.2,5.4s-4.3-2.6-4.3-2.6s-4-8.5-1.3-10S51,87.7,51,87.7L51,87.7z"/>
		<path class="st2" d="M47.1,87.7c0,0,4.2,1.7,4.2,3.5S46.6,93,46.6,93s-9.2-2.1-8.7-5.1S47.1,87.7,47.1,87.7z"/>
		<path class="st2" d="M81.4,45.2c0,0,1.2,4.4-0.2,5.5s-4.3-2.5-4.3-2.5s-4-8.5-1.3-10S81.4,45.3,81.4,45.2L81.4,45.2z"/>
		<path class="st2" d="M77.5,45.3c0,0,4.2,1.7,4.2,3.5S77,50.6,77,50.6s-9.2-2-8.7-5.1C68.8,42.4,77.5,45.3,77.5,45.3z"/>
		<path class="st2" d="M101.2,55.4c0,0,4.5,0.8,4.8,2.5c0.4,1.7-4.2,2.8-4.2,2.8s-9.4-0.1-9.6-3.1C92,54.6,101.2,55.4,101.2,55.4z"
			/>
		<ellipse transform="matrix(0.5243 -0.8515 0.8515 0.5243 23.9573 102.9241)" class="st1" cx="104.1" cy="30" rx="10.8" ry="8.2"/>
	</g>
</g>
</svg>
