<?xml version="1.0" encoding="utf-8"?>
<!-- Generator: Adobe Illustrator 26.2.1, SVG Export Plug-In . SVG Version: 6.00 Build 0)  -->
<svg version="1.1" id="Candles" xmlns="http://www.w3.org/2000/svg" xmlns:xlink="http://www.w3.org/1999/xlink" x="0px" y="0px"
	 viewBox="0 0 208.8 159.7" style="enable-background:new 0 0 208.8 159.7;" xml:space="preserve">
<style type="text/css">
	.st0{fill:#EFC2EE;stroke:#282727;stroke-width:4;stroke-miterlimit:10;}
	.st1{fill:#5E5E5B;}
</style>
<circle class="st0" cx="97.6" cy="84" r="56.2"/>
<g>
	<path class="st1" d="M121.6,80.2c0,0-12.5-6-9.1-10.4s9.1-9,9.1-9s3.5,3.6,7.2,8.5S121.6,80.2,121.6,80.2L121.6,80.2z"/>
	<path class="st1" d="M98.1,57.3c0,0-7.8-4.5-5.7-7.8s5.7-6.8,5.7-6.8s2.2,2.7,4.5,6.4S98.1,57.3,98.1,57.3z"/>
	<path class="st1" d="M77.4,79.4c0,0-11.4-5.5-8.2-9.5s8.2-8.2,8.2-8.2s3.2,3.2,6.5,7.7S77.4,79.4,77.4,79.4z"/>
	<rect x="68.6" y="82.1" class="st1" width="17" height="38"/>
	<rect x="111.9" y="82.1" class="st1" width="17.6" height="38"/>
	<rect x="90.2" y="63.6" class="st1" width="14.9" height="56.4"/>
</g>
</svg>
