<?xml version="1.0" encoding="utf-8"?>
<!-- Generator: Adobe Illustrator 26.2.1, SVG Export Plug-In . SVG Version: 6.00 Build 0)  -->
<svg version="1.1" id="Music_00000081642916956424256330000003046901387417197985_"
	 xmlns="http://www.w3.org/2000/svg" xmlns:xlink="http://www.w3.org/1999/xlink" x="0px" y="0px" viewBox="0 0 171.2 139.3"
	 style="enable-background:new 0 0 171.2 139.3;" xml:space="preserve">
<style type="text/css">
	.st0{fill:#BFA3A3;stroke:#1E1E1B;stroke-width:4;stroke-miterlimit:10;}
	.st1{fill:#999696;stroke:#1E1E1B;stroke-width:4;stroke-miterlimit:10;}
	.st2{fill:none;stroke:#1E1E1B;stroke-width:4;stroke-miterlimit:10;}
</style>
<g id="musicGroup">
	<ellipse class="st0" cx="87.5" cy="70" rx="62.5" ry="58"/>
	<g>
		<ellipse class="st1" cx="50.7" cy="77.1" rx="6.7" ry="5.1"/>
		<ellipse class="st1" cx="72.3" cy="77.1" rx="6.7" ry="5.1"/>
		<path class="st2" d="M53.2,72c0,0,6.3-6,2.1-11.2l-4.2-5.2L71,55c0,0,6.7,7.5,2.7,14L72.3,72"/>
		<ellipse class="st1" cx="98.9" cy="56.5" rx="6.7" ry="5.1"/>
		<ellipse class="st1" cx="120.5" cy="56.5" rx="6.7" ry="5.1"/>
		<path class="st2" d="M101,51.4c0,0,5.3-5,1.8-9.4l-3.5-4.3l16.6-0.5c0,0,5.6,6.2,2.2,11.7l-1.2,2.4"/>
		<ellipse class="st1" cx="92.2" cy="105.3" rx="6.7" ry="5.1"/>
		<ellipse class="st1" cx="113.8" cy="105.3" rx="6.7" ry="5.1"/>
		<path class="st2" d="M94.3,100.2c0,0,5.3-5,1.8-9.4l-3.5-4.3l16.6-0.5c0,0,5.6,6.2,2.2,11.7l-1.2,2.4"/>
	</g>
</g>
</svg>
