<?xml version="1.0" encoding="utf-8"?>
<!-- Generator: Adobe Illustrator 26.2.1, SVG Export Plug-In . SVG Version: 6.00 Build 0)  -->
<svg version="1.1" id="Rain" xmlns="http://www.w3.org/2000/svg" xmlns:xlink="http://www.w3.org/1999/xlink" x="0px" y="0px"
	 viewBox="0 0 155.9 128.4" style="enable-background:new 0 0 155.9 128.4;" xml:space="preserve">
<style type="text/css">
	.st0{fill:url(#SVGID_1_);}
	.st1{fill:none;stroke:#141B1D;stroke-width:3;stroke-miterlimit:10;}
	.st2{fill:#8CD6F3;stroke:#141B1D;stroke-miterlimit:10;}
</style>
<g id="rainCloud">
	<g>
		<linearGradient id="SVGID_1_" gradientUnits="userSpaceOnUse" x1="11.545" y1="55.2117" x2="134.505" y2="55.2117">
			<stop  offset="0" style="stop-color:#FFFFFF"/>
			<stop  offset="0.3726" style="stop-color:#FDFDFD"/>
			<stop  offset="0.5069" style="stop-color:#F6F6F6"/>
			<stop  offset="0.6026" style="stop-color:#EBEBEB"/>
			<stop  offset="0.68" style="stop-color:#DADADA"/>
			<stop  offset="0.7463" style="stop-color:#C4C4C4"/>
			<stop  offset="0.805" style="stop-color:#A8A8A8"/>
			<stop  offset="0.8581" style="stop-color:#888888"/>
			<stop  offset="0.9069" style="stop-color:#626262"/>
			<stop  offset="0.9523" style="stop-color:#373737"/>
			<stop  offset="0.9926" style="stop-color:#090909"/>
			<stop  offset="1" style="stop-color:#000000"/>
		</linearGradient>
		<path class="st0" d="M106,31.3c-3.5,0-6.9,0.6-10.1,1.6c-5.4-4.7-12.7-7.5-20.6-7.5c-11.2,0-21,5.6-26.3,14
			c-3.7-2.3-8.1-3.6-12.8-3.6c-13.6,0-24.6,11-24.6,24.6S22.6,85,36.1,85c7.6,0,14.5-3.5,19-8.9c5.4,4.4,12.4,7.1,20.1,7.1
			c6,0,11.6-1.6,16.3-4.4c4.2,2.2,9.2,3.5,14.4,3.5c15.8,0,28.6-11.4,28.6-25.5S121.7,31.3,106,31.3L106,31.3z"/>
		<path class="st1" d="M106,31.3c-3.5,0-6.9,0.6-10.1,1.6c-5.4-4.7-12.7-7.5-20.6-7.5c-11.2,0-21,5.6-26.3,14
			c-3.7-2.3-8.1-3.6-12.8-3.6c-13.6,0-24.6,11-24.6,24.6S22.6,85,36.1,85c7.6,0,14.5-3.5,19-8.9c5.4,4.4,12.4,7.1,20.1,7.1
			c6,0,11.6-1.6,16.3-4.4c4.2,2.2,9.2,3.5,14.4,3.5c15.8,0,28.6-11.4,28.6-25.5S121.7,31.3,106,31.3L106,31.3z"/>
	</g>
	<path class="st2" d="M57.8,111.8c-1,2.3-4.8,1.2-5.4-1.6s4.1-3.8,4.1-3.8S58.8,109.5,57.8,111.8L57.8,111.8z"/>
	<path class="st2" d="M73.1,96.9c-1,2.3-4.8,1.2-5.4-1.6s4.1-3.8,4.1-3.8S74.1,94.7,73.1,96.9L73.1,96.9z"/>
	<path class="st2" d="M81.3,108.4c-1,2.3-4.8,1.2-5.4-1.6S80,103,80,103S82.3,106.2,81.3,108.4L81.3,108.4z"/>
	<path class="st2" d="M60.6,93.6c-1,2.3-4.8,1.2-5.4-1.6s4.1-3.8,4.1-3.8S61.7,91.4,60.6,93.6L60.6,93.6z"/>
	<path class="st2" d="M95.5,93.6c-1,2.3-4.8,1.2-5.4-1.6s4.1-3.8,4.1-3.8S96.5,91.4,95.5,93.6L95.5,93.6z"/>
	<path class="st2" d="M51.1,96.9c-1,2.3-4.8,1.2-5.4-1.6s4.1-3.8,4.1-3.8S52.1,94.7,51.1,96.9L51.1,96.9z"/>
	<path class="st2" d="M69.4,111.8c-1,2.3-4.8,1.2-5.4-1.6s4.1-3.8,4.1-3.8S70.4,109.5,69.4,111.8L69.4,111.8z"/>
</g>
</svg>
