<?xml version="1.0" encoding="utf-8"?>
<!-- Generator: Adobe Illustrator 26.2.1, SVG Export Plug-In . SVG Version: 6.00 Build 0)  -->
<svg version="1.1" id="rocksSpa" xmlns="http://www.w3.org/2000/svg" xmlns:xlink="http://www.w3.org/1999/xlink" x="0px" y="0px"
	 viewBox="0 0 232.8 192.7" style="enable-background:new 0 0 232.8 192.7;" xml:space="preserve">
<style type="text/css">
	.st0{fill:#545556;stroke:#020404;stroke-width:3;stroke-miterlimit:10;}
	.st1{fill:#404243;stroke:#020404;stroke-width:3;stroke-miterlimit:10;}
	.st2{fill:#1B1C1B;stroke:#231F20;stroke-width:3;stroke-miterlimit:10;}
	.st3{fill:#231F20;stroke:#231F20;stroke-miterlimit:10;}
	.st4{fill:#EEF1F2;}
</style>
<g id="Rocks">
	<g>
		<ellipse class="st0" cx="128.4" cy="139.7" rx="63.8" ry="29.3"/>
		<ellipse class="st1" cx="128.4" cy="87.1" rx="55.7" ry="25.6"/>
		<ellipse class="st2" cx="128.4" cy="45.1" rx="46.6" ry="21.4"/>
		<g>
			<g>
				<ellipse class="st3" cx="154.1" cy="120.4" rx="2.8" ry="3"/>
				<ellipse class="st4" cx="154.8" cy="118.9" rx="0.7" ry="0.7"/>
			</g>
			<g>
				<ellipse class="st3" cx="166.1" cy="123.4" rx="2.8" ry="3"/>
				<ellipse class="st4" cx="166.8" cy="121.9" rx="0.7" ry="0.7"/>
			</g>
			<g>
				<ellipse class="st3" cx="176.5" cy="127.8" rx="2.8" ry="3"/>
				<ellipse class="st4" cx="177.2" cy="126.3" rx="0.7" ry="0.7"/>
			</g>
		</g>
		<g>
			<g>
				<ellipse class="st3" cx="152.1" cy="71.3" rx="2.8" ry="3"/>
				<ellipse class="st4" cx="152.8" cy="69.8" rx="0.7" ry="0.7"/>
			</g>
			<g>
				<ellipse class="st3" cx="164.1" cy="74.3" rx="2.8" ry="3"/>
				<ellipse class="st4" cx="164.8" cy="72.8" rx="0.7" ry="0.7"/>
			</g>
			<g>
				<ellipse class="st3" cx="174.4" cy="78.7" rx="2.8" ry="3"/>
				<ellipse class="st4" cx="175.1" cy="77.2" rx="0.7" ry="0.7"/>
			</g>
		</g>
		<g>
			<g>
				<ellipse class="st3" cx="136" cy="30.7" rx="2.8" ry="3"/>
				<ellipse class="st4" cx="136.7" cy="29.2" rx="0.7" ry="0.7"/>
			</g>
			<g>
				<ellipse class="st3" cx="148" cy="33.8" rx="2.8" ry="3"/>
				<ellipse class="st4" cx="148.7" cy="32.2" rx="0.7" ry="0.7"/>
			</g>
			<g>
				<ellipse class="st3" cx="158.4" cy="38.2" rx="2.8" ry="3"/>
				<ellipse class="st4" cx="159.1" cy="36.6" rx="0.7" ry="0.7"/>
			</g>
		</g>
	</g>
</g>
</svg>
