<?xml version="1.0" encoding="utf-8"?>
<!-- Generator: Adobe Illustrator 26.2.1, SVG Export Plug-In . SVG Version: 6.00 Build 0)  -->
<svg version="1.1" id="storm" xmlns="http://www.w3.org/2000/svg" xmlns:xlink="http://www.w3.org/1999/xlink" x="0px" y="0px"
	 viewBox="0 0 237.4 192.2" style="enable-background:new 0 0 237.4 192.2;" xml:space="preserve">
<style type="text/css">
	.st0{fill:#E8ECEE;stroke:url(#SVGID_1_);stroke-width:4;stroke-miterlimit:10;}
	.st1{fill:#8CD6F3;}
	.st2{fill:#DDB926;}
</style>
<g id="Music">
</g>
<g id="Bambu">
</g>
<g id="water_drop">
</g>
<g id="Relax_music">
</g>
<g id="Rocks">
</g>
<g id="wind">
</g>
<g id="rain">
</g>
<g id="Storm">
	<g>
		
			<linearGradient id="SVGID_1_" gradientUnits="userSpaceOnUse" x1="55.97" y1="115.585" x2="181.4" y2="115.585" gradientTransform="matrix(1 0 0 -1 0 194)">
			<stop  offset="0" style="stop-color:#FFFFFF"/>
			<stop  offset="1" style="stop-color:#3C3C3C"/>
		</linearGradient>
		<path class="st0" d="M154.8,60.7c-2.4,0-4.8,0.4-7,1c-5.9-10.7-17.3-18-30.5-18s-24.1,7-30.1,17.4c-1.5-0.3-3-0.4-4.6-0.4
			C69,60.7,58,71.7,58,85.3s11,24.6,24.6,24.6c5,0,9.6-1.5,13.5-4c5.9,4.6,13.2,7.3,21.3,7.3c8.6,0,16.5-3.1,22.5-8.3
			c4.1,3.2,9.3,5.1,14.9,5.1c13.6,0,24.6-11,24.6-24.6S168.4,60.7,154.8,60.7L154.8,60.7z"/>
		<path class="st1" d="M71.8,122.8c-1.2,2.6-5.4,1.3-6.1-1.8s4.6-4.4,4.6-4.4S73,120.3,71.8,122.8L71.8,122.8z"/>
		<path class="st1" d="M144.4,145.6c-1.1,2.6-5.4,1.3-6.1-1.8s4.6-4.4,4.6-4.4S145.5,143,144.4,145.6L144.4,145.6z"/>
		<path class="st1" d="M148.7,130.4c-1.1,2.6-5.4,1.3-6.1-1.8s4.6-4.4,4.6-4.4S149.8,127.8,148.7,130.4L148.7,130.4z"/>
		<path class="st1" d="M163.3,132.8c-1.1,2.6-5.4,1.3-6.1-1.8s4.6-4.4,4.6-4.4S164.5,130.3,163.3,132.8L163.3,132.8z"/>
		<path class="st1" d="M83.5,138c-1.2,2.6-5.4,1.3-6.1-1.8s4.6-4.4,4.6-4.4S84.7,135.4,83.5,138L83.5,138z"/>
		<polygon class="st2" points="103.8,123.8 129.1,123.8 119.4,132.6 129.1,132.6 109,153.4 110.4,132.1 103.8,132.1 		"/>
		<path class="st1" d="M91.9,126.6c-1.2,2.6-5.4,1.3-6.1-1.8s4.6-4.4,4.6-4.4S93.1,124.1,91.9,126.6L91.9,126.6z"/>
		<path class="st1" d="M119.9,130.4c-1.2,2.6-5.4,1.3-6.1-1.8s4.6-4.4,4.6-4.4S121,127.8,119.9,130.4L119.9,130.4z"/>
	</g>
</g>
<g id="trees">
</g>
<g id="candles">
</g>
</svg>
