<?xml version="1.0" encoding="utf-8"?>
<!-- Generator: Adobe Illustrator 26.2.1, SVG Export Plug-In . SVG Version: 6.00 Build 0)  -->
<svg version="1.1" xmlns="http://www.w3.org/2000/svg" xmlns:xlink="http://www.w3.org/1999/xlink" x="0px" y="0px"
	 viewBox="0 0 200.4 195.3" style="enable-background:new 0 0 200.4 195.3;" xml:space="preserve">
<style type="text/css">
	.st0{fill:#DECCE2;stroke:#1E1E1D;stroke-width:5;stroke-miterlimit:10;}
	.st1{fill:#595B59;stroke:#231F20;stroke-width:5;stroke-miterlimit:10;}
	.st2{fill:#1E1E1D;}
	.st3{fill:#B0B7B1;stroke:#231F20;stroke-width:4;stroke-miterlimit:10;}
	.st4{fill:#212120;}
</style>
<g id="Layer_2">
	<ellipse class="st0" cx="98" cy="97.5" rx="87.4" ry="85.8"/>
</g>
<g id="trees">
	<g>
		<path class="st1" d="M154.6,79.3C154,62.8,141.8,49.6,127,49.6S99.3,63.5,99.3,80.7c0,0.4,0,0.7,0,1.1C89.6,86,82.9,95.7,82.9,107
			c0,15.2,12.3,27.5,27.5,27.5c6.1,0,11.7-2,16.2-5.3c5.1,4.3,11.6,6.9,18.8,6.9c16.1,0,29.1-13,29.1-29.1
			C174.5,94.1,166.2,83.2,154.6,79.3L154.6,79.3L154.6,79.3z"/>
		<path class="st2" d="M139.8,159.3h-25.7c7-13.9,7-27.8,0-41.8h25.7C131.5,131.5,131.5,145.4,139.8,159.3L139.8,159.3z"/>
		<path class="st3" d="M108.6,78.1c0-18.1-14.7-32.8-32.9-32.8c-16.6,0-30.3,12.3-32.5,28.3C30.5,78,21.4,90.2,21.4,104.4
			c0,18.2,14.7,32.9,32.9,32.9c6.6,0,12.7-1.9,17.9-5.3c5.8,5.2,13.5,8.4,21.9,8.4c18.2,0,32.9-14.7,32.9-32.9
			C127,94.6,119.5,83.4,108.6,78.1L108.6,78.1L108.6,78.1z"/>
		<path class="st4" d="M87,159.3H61.4c7-13.9,7-27.8,0-41.8H87C78.7,131.5,78.7,145.4,87,159.3z"/>
	</g>
</g>
</svg>
