<?xml version="1.0" encoding="utf-8"?>
<!-- Generator: Adobe Illustrator 26.2.1, SVG Export Plug-In . SVG Version: 6.00 Build 0)  -->
<svg version="1.1" id="windIcon" xmlns="http://www.w3.org/2000/svg" xmlns:xlink="http://www.w3.org/1999/xlink" x="0px" y="0px"
	 viewBox="0 0 160.7 134" style="enable-background:new 0 0 160.7 134;" xml:space="preserve">
<style type="text/css">
	.st0{fill:#EDDFE7;stroke:#0C0C0C;stroke-width:4;stroke-miterlimit:10;}
	.st1{fill:#4889C8;}
</style>
<g>
	<ellipse class="st0" cx="76.2" cy="68.5" rx="62.5" ry="59.5"/>
	<g>
		<path class="st1" d="M61.4,69.7c7.7-0.5,14.8,1,22.3,2.2c7.1,1.1,14.1,1.8,21.2,0.7c6.4-1,13-3.8,17.4-8.8
			c4.8-5.5,6.5-13.3,1.9-19.4c-5.3-7.1-14.7-8-22.6-5c-1.9,0.7-3.2,2.5-2.6,4.6c0.5,1.8,2.7,3.4,4.6,2.6c1.5-0.6,3.1-1.1,4.7-1.3
			c-0.2,0-0.5,0,0.3,0c0.4,0,0.9-0.1,1.3-0.1c0.3,0,0.6,0,0.9,0c0.2,0,1.4,0.1,1.2,0.1c0.7,0.1,1.4,0.3,2.1,0.5
			c0.1,0,1.1,0.5,0.4,0.2c0.2,0.1,0.4,0.2,0.6,0.3c0.5,0.3,1.1,0.6,1.5,1c-0.6-0.5,0.3,0.3,0.3,0.3c0.3,0.2,0.5,0.5,0.8,0.8
			c0.7,0.8-0.3-0.5,0.3,0.4c0.2,0.2,0.3,0.5,0.5,0.8s0.3,0.5,0.4,0.8c-0.3-0.7,0.1,0.4,0.1,0.5c0.1,0.2,0.1,0.5,0.2,0.7
			c0.3,1,0-0.7,0.1,0.5c0,0.3,0,0.5,0,0.8s0,0.5,0,0.8c0.1-0.4,0.1-0.3,0,0.1c-0.6,2.5-1.6,4.2-3.5,6c-1.1,1.1-1.6,1.4-3,2.3
			c-0.6,0.3-1.1,0.7-1.7,1c-0.2,0.1-0.5,0.2-0.7,0.3s-0.5,0.2-0.7,0.3c0.3-0.1,0.2-0.1-0.2,0.1c-1.2,0.5-2.4,0.8-3.7,1.2
			c-0.6,0.2-1.3,0.3-1.9,0.4c-0.4,0.1-0.8,0.1-1.2,0.2c-0.8,0.1,0.2,0-0.6,0.1c-5.9,0.6-11.7,0-17.4-0.9c-7.8-1.3-15.7-2.9-23.6-2.4
			c-2,0.1-3.8,1.6-3.8,3.7C57.7,67.9,59.2,69.9,61.4,69.7L61.4,69.7L61.4,69.7z"/>
		<path class="st1" d="M30.4,55.9c7.7-0.5,14.8,1,22.4,2.2c7.1,1.1,14.1,1.8,21.2,0.7c6.4-1,13-3.8,17.4-8.8
			c4.8-5.5,6.5-13.3,1.9-19.4c-5.3-7.1-14.7-8-22.6-5c-1.9,0.7-3.2,2.5-2.6,4.6c0.5,1.8,2.7,3.4,4.6,2.6c1.5-0.6,3.1-1.1,4.7-1.3
			c-0.2,0-0.5,0,0.3,0c0.4,0,0.9-0.1,1.3-0.1c0.3,0,0.6,0,0.9,0c0.2,0,1.4,0.1,1.2,0.1c0.7,0.1,1.4,0.3,2.1,0.5
			c0.1,0,1.1,0.5,0.4,0.2c0.2,0.1,0.4,0.2,0.6,0.3c0.5,0.3,1,0.6,1.5,1C85.1,33,86,33.8,86,33.8c0.3,0.2,0.5,0.5,0.8,0.8
			c0.7,0.8-0.3-0.5,0.3,0.4c0.2,0.2,0.3,0.5,0.5,0.8s0.3,0.5,0.4,0.8c-0.3-0.7,0.1,0.4,0.1,0.5c0.1,0.2,0.1,0.5,0.2,0.7
			c0.3,1,0-0.7,0.1,0.5c0,0.3,0,0.5,0,0.8s0,0.5,0,0.8c0.1-0.4,0-0.3,0,0.2c-0.6,2.5-1.6,4.2-3.5,6c-1.1,1.1-1.6,1.4-3,2.3
			c-0.5,0.3-1.1,0.7-1.7,0.9c-0.2,0.1-0.5,0.2-0.7,0.3s-0.5,0.2-0.7,0.3c0.3-0.1,0.2-0.1-0.2,0.1c-1.2,0.5-2.4,0.8-3.7,1.2
			c-0.6,0.2-1.3,0.3-1.9,0.4c-0.4,0.1-0.8,0.1-1.2,0.2c-0.8,0.1,0.2,0-0.6,0.1c-5.9,0.6-11.7,0-17.4-0.9c-7.8-1.3-15.7-2.9-23.6-2.4
			c-1.9,0.1-3.8,1.6-3.7,3.7C26.7,54.1,28.3,56,30.4,55.9L30.4,55.9z"/>
		<path class="st1" d="M33.3,87.4c14.5,0.5,29.1,0.7,43.6,0.6c3.6,0,7.2-0.1,10.8-0.1c1.7,0,3.4,0,5.2,0.1c0.4,0,0.8,0.1,1.2,0.1
			c0.9,0.1-1.1-0.3,0.3,0.1c0.9,0.2,1.8,0.4,2.7,0.7c0.3,0.1,0.8,0.2,1,0.4c-1.1-0.7-0.1,0,0.1,0.1c0.5,0.3,1.1,0.6,1.6,0.9
			c1,0.6-0.5-0.5,0,0c0.2,0.2,0.5,0.4,0.7,0.6c0.3,0.2,0.5,0.5,0.8,0.8c0.8,0.8-0.5-0.8,0.1,0.1c0.2,0.3,0.4,0.6,0.6,0.9
			c0.1,0.1,0.5,1.1,0.2,0.4s0.1,0.4,0.1,0.4c0,0.2,0.3,0.9,0.2,1l-0.1-0.6c0,0.2,0,0.3,0,0.5c0,0.3,0,0.6,0,0.9c0,1.2,0.3-1.1,0,0.1
			c-0.1,0.3-0.2,0.7-0.2,1c-0.1,0.3-0.2,0.8-0.3,1c0.3-0.7,0.3-0.7,0.1-0.2l-0.2,0.3c-0.2,0.3-0.4,0.6-0.6,0.9
			c-0.3,0.4-0.3,0.4,0.2-0.2c-0.2,0.2-0.3,0.4-0.5,0.5c-0.2,0.2-0.3,0.3-0.5,0.5s-0.3,0.3-0.5,0.5c0.6-0.4,0.6-0.5,0.2-0.2
			c-0.2,0.1-0.4,0.3-0.6,0.4s-0.5,0.2-0.7,0.4c0.6-0.2,0.6-0.2,0.1-0.1c-0.3,0.1-0.6,0.2-0.9,0.3c-0.3,0.1-1.6,0.5-0.4,0.1
			c-0.7,0.2-1.7,0.1-2.4,0c-1.3,0,1,0.3-0.2,0c-0.4-0.1-0.8-0.2-1.2-0.3c-0.4-0.1-0.8-0.2-1.1-0.4c1.1,0.6-0.4-0.2-0.6-0.4
			c-2.3-1.3-5.6-0.6-6.8,1.8c-1.3,2.4-0.6,5.5,1.8,6.8c6.9,3.9,16.5,3.2,21.7-3.2c2.4-3,4-6.8,3.8-10.8s-1.8-7.5-4.6-10.2
			c-6-6-14.5-6.2-22.5-6.1C77.4,78,69.1,78.1,61,78c-9.2-0.1-18.5-0.3-27.7-0.6c-2.6-0.1-5.1,2.4-5,5C28.4,85.2,30.5,87.3,33.3,87.4
			L33.3,87.4L33.3,87.4z"/>
	</g>
</g>
</svg>
